<svg width="20" height="20" viewBox="0 0 20 20" fill="none" xmlns="http://www.w3.org/2000/svg">
<path d="M2.7255 1.66918H9.99822C10.0806 1.66918 10.1473 1.73593 10.1473 1.81827V9.091C10.1473 9.17334 10.0806 9.24009 9.99822 9.24009H2.7255C2.64316 9.24009 2.57641 9.17334 2.57641 9.091V1.81827C2.57641 1.73593 2.64316 1.66918 2.7255 1.66918Z" stroke="#0086C9" stroke-width="1.52" stroke-linejoin="round"/>
<path d="M7.11328 11.8184C7.11328 11.4041 6.77749 11.0684 6.36328 11.0684C5.94907 11.0684 5.61328 11.4041 5.61328 11.8184H7.11328ZM5.61328 11.8184V14.5456H7.11328V11.8184H5.61328ZM7.27237 16.2047H10.9087V14.7047H7.27237V16.2047ZM5.61328 14.5456C5.61328 15.4619 6.35608 16.2047 7.27237 16.2047V14.7047C7.18451 14.7047 7.11328 14.6335 7.11328 14.5456H5.61328Z" fill="#0086C9"/>
<path d="M10.7567 14.7362L11.8685 13.5131C12.4155 12.9114 13.191 12.5684 14.0042 12.5684H15.6126V18.3411H14.0042C13.191 18.3411 12.4155 17.998 11.8685 17.3963L10.7567 16.1733C10.3863 15.7658 10.3863 15.1436 10.7567 14.7362Z" stroke="#0086C9" stroke-width="1.5" stroke-linejoin="round"/>
<path d="M16.3633 13.6362H18.1815M16.3633 17.2726H18.1815" stroke="#0086C9" stroke-width="1.5" stroke-linecap="round" stroke-linejoin="round"/>
</svg>
