<svg width="24" height="24" viewBox="0 0 24 24" fill="none" xmlns="http://www.w3.org/2000/svg">
<path d="M4.06895 16.1514L3.45342 15.7229H3.45342L4.06895 16.1514ZM5.23722 12.537L4.48722 12.5286V12.537H5.23722ZM5.26174 10.3517L6.01174 10.3601V10.3517H5.26174ZM19.9359 16.169L20.5597 15.7526L20.5597 15.7526L19.9359 16.169ZM18.8116 12.537L18.0616 12.5281V12.537H18.8116ZM18.8361 10.4599L19.5861 10.4688V10.4599H18.8361ZM9.78732 19.5039C9.46312 19.2461 8.99131 19.2999 8.73349 19.6241C8.47567 19.9483 8.52948 20.4201 8.85368 20.6779L9.78732 19.5039ZM15.1449 20.6779C15.4691 20.4201 15.5229 19.9483 15.2651 19.6241C15.0073 19.2999 14.5355 19.2461 14.2113 19.5039L15.1449 20.6779ZM4.68447 16.58C5.34126 15.6366 5.98722 14.2373 5.98722 12.537H4.48722C4.48722 13.853 3.98559 14.9585 3.45342 15.7229L4.68447 16.58ZM5.98717 12.5454L6.01169 10.3601L4.51178 10.3432L4.48726 12.5286L5.98717 12.5454ZM20.5597 15.7526C20.0494 14.9882 19.5616 13.8717 19.5616 12.537H18.0616C18.0616 14.2393 18.6818 15.6412 19.3121 16.5854L20.5597 15.7526ZM19.5615 12.5458L19.5861 10.4688L18.0862 10.4511L18.0616 12.5281L19.5615 12.5458ZM19.5861 10.4599C19.5861 5.98864 16.2496 2.25 11.9993 2.25V3.75C15.3007 3.75 18.0861 6.69123 18.0861 10.4599H19.5861ZM19.5267 17.9318C20.166 17.9318 20.5378 17.4489 20.6793 17.0863C20.8248 16.7132 20.852 16.1905 20.5597 15.7526L19.3121 16.5854C19.2994 16.5663 19.2927 16.5497 19.2893 16.5388C19.286 16.5282 19.2857 16.5223 19.2857 16.522C19.2857 16.5217 19.2858 16.5243 19.285 16.5291C19.2842 16.534 19.283 16.5383 19.2818 16.5411C19.2779 16.5511 19.2816 16.5335 19.3139 16.5058C19.3519 16.4733 19.4269 16.4318 19.5267 16.4318V17.9318ZM6.01174 10.3517C6.01174 6.64274 8.7527 3.75 11.9993 3.75V2.25C7.8038 2.25 4.51174 5.94016 4.51174 10.3517H6.01174ZM4.47283 16.4318C4.57506 16.4318 4.65091 16.475 4.68819 16.5075C4.71965 16.535 4.72206 16.5514 4.71746 16.5392C4.716 16.5353 4.71452 16.5301 4.71364 16.5244C4.71322 16.5217 4.71302 16.5194 4.71294 16.5177C4.71285 16.516 4.71291 16.5151 4.7129 16.5152C4.7129 16.5154 4.7128 16.5168 4.71231 16.5194C4.71182 16.5221 4.71087 16.5263 4.70908 16.5319C4.70547 16.543 4.69823 16.5602 4.68447 16.58L3.45342 15.7229C3.14761 16.1622 3.17219 16.6939 3.31452 17.07C3.45244 17.4345 3.82338 17.9318 4.47283 17.9318V16.4318ZM19.5267 16.4318H4.47283V17.9318H19.5267V16.4318ZM11.9993 20.25C11.137 20.25 10.3634 19.962 9.78732 19.5039L8.85368 20.6779C9.69937 21.3504 10.8033 21.75 11.9993 21.75V20.25ZM14.2113 19.5039C13.6352 19.962 12.8616 20.25 11.9993 20.25V21.75C13.1953 21.75 14.2992 21.3504 15.1449 20.6779L14.2113 19.5039Z" fill="white"/>
</svg>
