<svg width="20" height="20" viewBox="0 0 20 20" fill="none" xmlns="http://www.w3.org/2000/svg">
<g clip-path="url(#clip0_926_5280)">
<path d="M12.5 18.2738C12.3619 18.2738 12.25 18.1619 12.25 18.0238V12.4524C12.25 12.3143 12.3619 12.2024 12.5 12.2024H18.5C18.6381 12.2024 18.75 12.3143 18.75 12.4524V18.0238C18.75 18.1619 18.6381 18.2738 18.5 18.2738H12.5ZM1.5 18.2738C1.36193 18.2738 1.25 18.1619 1.25 18.0238V12.4524C1.25 12.3143 1.36193 12.2024 1.5 12.2024H7.5C7.63807 12.2024 7.75 12.3143 7.75 12.4524V18.0238C7.75 18.1619 7.63807 18.2738 7.5 18.2738H1.5ZM12.5 7.79763C12.3619 7.79763 12.25 7.6857 12.25 7.54763V1.9762C12.25 1.83813 12.3619 1.7262 12.5 1.7262H18.5C18.6381 1.7262 18.75 1.83812 18.75 1.9762V7.54763C18.75 7.6857 18.6381 7.79763 18.5 7.79763H12.5ZM1.5 7.79763C1.36193 7.79763 1.25 7.6857 1.25 7.54763V1.9762C1.25 1.83813 1.36193 1.7262 1.5 1.7262H7.5C7.63807 1.7262 7.75 1.83813 7.75 1.9762V7.54763C7.75 7.6857 7.63807 7.79763 7.5 7.79763H1.5Z" stroke="#D5D7DA" stroke-width="2.5"/>
</g>
<defs>
<clipPath id="clip0_926_5280">
<rect width="20" height="20" fill="white"/>
</clipPath>
</defs>
</svg>
