<svg width="20" height="20" viewBox="0 0 20 20" fill="none" xmlns="http://www.w3.org/2000/svg">
<g clip-path="url(#clip0_907_3440)">
<path fill-rule="evenodd" clip-rule="evenodd" d="M11 18.0237C11 18.8521 11.6716 19.5237 12.5 19.5237H18.5C19.3284 19.5237 20 18.8521 20 18.0237V12.4523C20 11.6238 19.3284 10.9523 18.5 10.9523H12.5C11.6716 10.9523 11 11.6238 11 12.4523V18.0237ZM0 18.0237C0 18.8521 0.671573 19.5237 1.5 19.5237H7.5C8.32843 19.5237 9 18.8521 9 18.0237V12.4523C9 11.6238 8.32843 10.9523 7.5 10.9523H1.5C0.671573 10.9523 0 11.6238 0 12.4523V18.0237ZM11 7.5475C11 8.37593 11.6716 9.0475 12.5 9.0475H18.5C19.3284 9.0475 20 8.37593 20 7.5475V1.97607C20 1.14765 19.3284 0.476074 18.5 0.476074H12.5C11.6716 0.476074 11 1.14765 11 1.97607V7.5475ZM0 7.5475C0 8.37593 0.671573 9.0475 1.5 9.0475H7.5C8.32843 9.0475 9 8.37593 9 7.5475V1.97607C9 1.14765 8.32843 0.476074 7.5 0.476074H1.5C0.671573 0.476074 0 1.14765 0 1.97607V7.5475Z" fill="#0086C9"/>
</g>
<defs>
<clipPath id="clip0_907_3440">
<rect width="20" height="20" fill="white"/>
</clipPath>
</defs>
</svg>
