<svg width="16" height="16" viewBox="0 0 16 16" fill="none" xmlns="http://www.w3.org/2000/svg">
<g clip-path="url(#clip0_1137_19407)">
<path d="M16 11.9995C16 12.471 15.8127 12.9231 15.4793 13.2565C15.1459 13.5899 14.6937 13.7772 14.2222 13.7772H1.77778C1.30628 13.7772 0.854097 13.5899 0.520699 13.2565C0.187301 12.9231 0 12.471 0 11.9995V3.99946C0 3.52796 0.187301 3.07578 0.520699 2.74238C0.854097 2.40898 1.30628 2.22168 1.77778 2.22168H14.2222C14.6937 2.22168 15.1459 2.40898 15.4793 2.74238C15.8127 3.07578 16 3.52796 16 3.99946V11.9995Z" fill="#DE2910"/>
<path d="M4.95047 3.99031L5.27758 4.14853L5.53936 3.89697L5.49003 4.25697L5.81003 4.42853L5.45269 4.49253L5.38869 4.84986L5.21714 4.52986L4.85714 4.57919L5.10869 4.31742L4.95047 3.99031ZM7.0238 5.29742L6.86558 5.62408L7.11714 5.88631L6.75758 5.83653L6.58603 6.15697L6.52203 5.79919L6.16425 5.73519L6.48469 5.56364L6.43492 5.20408L6.69714 5.45564L7.0238 5.29742ZM6.59847 6.97697L6.71758 7.32008L7.08069 7.32764L6.79136 7.54675L6.89669 7.89475L6.59847 7.68719L6.30025 7.89475L6.40514 7.54675L6.1158 7.32764L6.47891 7.32008L6.59847 6.97697ZM4.95047 8.43475L5.27758 8.59297L5.53936 8.34142L5.49003 8.70142L5.81003 8.87297L5.45269 8.93697L5.38869 9.29431L5.21714 8.97431L4.85714 9.02364L5.10869 8.76186L4.95047 8.43475ZM3.11225 4.86764L3.52514 6.05475L4.78114 6.08053L3.7798 6.83964L4.1438 8.04231L3.11225 7.32453L2.08069 8.04231L2.44469 6.83964L1.44336 6.08053L2.69936 6.05475L3.11225 4.86764Z" fill="#FFDE02"/>
</g>
<defs>
<clipPath id="clip0_1137_19407">
<rect width="16" height="16" fill="white"/>
</clipPath>
</defs>
</svg>
