<svg width="12" height="3" viewBox="0 0 12 3" fill="none" xmlns="http://www.w3.org/2000/svg">
<path d="M1.4 2.112C1.144 2.112 0.930667 2.032 0.76 1.872C0.6 1.70133 0.52 1.488 0.52 1.232C0.52 0.976 0.6 0.768 0.76 0.608C0.930667 0.437333 1.144 0.352 1.4 0.352C1.656 0.352 1.864 0.437333 2.024 0.608C2.19467 0.768 2.28 0.976 2.28 1.232C2.28 1.488 2.19467 1.70133 2.024 1.872C1.864 2.032 1.656 2.112 1.4 2.112ZM6.19688 2.112C5.94088 2.112 5.72754 2.032 5.55688 1.872C5.39688 1.70133 5.31688 1.488 5.31688 1.232C5.31688 0.976 5.39688 0.768 5.55688 0.608C5.72754 0.437333 5.94088 0.352 6.19688 0.352C6.45288 0.352 6.66088 0.437333 6.82088 0.608C6.99154 0.768 7.07688 0.976 7.07688 1.232C7.07688 1.488 6.99154 1.70133 6.82088 1.872C6.66088 2.032 6.45288 2.112 6.19688 2.112ZM10.9938 2.112C10.7378 2.112 10.5244 2.032 10.3538 1.872C10.1938 1.70133 10.1138 1.488 10.1138 1.232C10.1138 0.976 10.1938 0.768 10.3538 0.608C10.5244 0.437333 10.7378 0.352 10.9938 0.352C11.2498 0.352 11.4578 0.437333 11.6178 0.608C11.7884 0.768 11.8738 0.976 11.8738 1.232C11.8738 1.488 11.7884 1.70133 11.6178 1.872C11.4578 2.032 11.2498 2.112 10.9938 2.112Z" fill="#0D0F1C"/>
</svg>
