<svg width="24" height="24" viewBox="0 0 24 24" fill="none" xmlns="http://www.w3.org/2000/svg">
<path d="M10 15.5L13 16.5C13 16.5 20.5 15 21.5 15C22.5 15 22.5 16 21.5 17C20.5 18 17 21 14 21C11 21 9 19.5 7 19.5C5 19.5 2 19.5 2 19.5" stroke="#0086C9" stroke-width="1.5" stroke-linecap="round" stroke-linejoin="round"/>
<path d="M2 13.5C3 12.5 5 11 7 11C9 11 13.75 13 14.5 14C15.25 15 13 16.5 13 16.5" stroke="#0086C9" stroke-width="1.5" stroke-linecap="round" stroke-linejoin="round"/>
<path d="M8 8V4C8 3.44771 8.4477 3 9 3H21C21.5523 3 22 3.44771 22 4V12" stroke="#0086C9" stroke-width="1.5" stroke-linecap="round" stroke-linejoin="round"/>
<path d="M17.5 3H12.5V7.5H17.5V3Z" stroke="#0086C9" stroke-width="1.5" stroke-linecap="round" stroke-linejoin="round"/>
</svg>
