<svg width="16" height="16" viewBox="0 0 16 16" fill="none" xmlns="http://www.w3.org/2000/svg">
<path d="M7.9636 16.0059L7.7158 15.9012C7.44 15.7859 1 13.0159 1 7.99986V3.65053C1.00025 3.23197 1.13915 2.82416 1.39693 2.48517C1.65471 2.14618 2.01822 1.8933 2.4357 1.76253L8 0.00585938L13.5643 1.76253C13.9818 1.8933 14.3453 2.14618 14.6031 2.48517C14.8609 2.82416 14.9998 3.23197 15 3.65053V7.99986C15 13.7179 8.4984 15.8365 8.2212 15.9245L7.9636 16.0059ZM8 1.40386L2.8788 3.02119C2.73946 3.06454 2.6181 3.14876 2.53209 3.26181C2.44609 3.37486 2.39985 3.51092 2.4 3.65053V7.99986C2.4 11.6625 6.908 14.0385 8.0329 14.5739C9.1557 14.1439 13.6 12.1752 13.6 7.99986V3.65053C13.6002 3.51092 13.5539 3.37486 13.4679 3.26181C13.3819 3.14876 13.2605 3.06454 13.1212 3.02119L8 1.40386Z" fill="#0086C9"/>
<path d="M7.456 9.69473H7.434C7.26526 9.69214 7.0988 9.65536 6.94468 9.58661C6.79056 9.51786 6.65198 9.41856 6.53733 9.29473L5 7.69473L5.96067 6.77339L7.45667 8.33339L10.9107 4.87939L11.8533 5.82206L8.346 9.3294C8.22918 9.44612 8.09037 9.53851 7.9376 9.60122C7.78483 9.66393 7.62114 9.69571 7.456 9.69473Z" fill="#0086C9"/>
</svg>
