<svg width="18" height="17" viewBox="0 0 18 17" fill="none" xmlns="http://www.w3.org/2000/svg">
<path d="M8.31304 0.976284C8.53944 0.324967 9.46056 0.324965 9.68695 0.976282L11.185 5.28591C11.2849 5.57323 11.553 5.76805 11.8571 5.77424L16.4187 5.8672C17.1081 5.88125 17.3928 6.75728 16.8433 7.17387L13.2075 9.93032C12.9651 10.1141 12.8627 10.4293 12.9508 10.7205L14.272 15.0875C14.4717 15.7475 13.7265 16.289 13.1605 15.8951L9.4154 13.2891C9.16572 13.1153 8.83428 13.1153 8.5846 13.2891L4.83954 15.8951C4.27354 16.289 3.52834 15.7475 3.72802 15.0875L5.04922 10.7205C5.13731 10.4293 5.03489 10.1141 4.79249 9.93032L1.15671 7.17387C0.607234 6.75728 0.891872 5.88125 1.58127 5.8672L6.14288 5.77424C6.44701 5.76805 6.71515 5.57323 6.81502 5.28591L8.31304 0.976284Z" fill="#FEB273"/>
</svg>
