<svg width="32" height="32" viewBox="0 0 32 32" fill="none" xmlns="http://www.w3.org/2000/svg">
<g clip-path="url(#clip0_1513_7006)">
<path d="M27.2 0H4.8C2.14903 0 0 2.14903 0 4.8V27.2C0 29.851 2.14903 32 4.8 32H27.2C29.851 32 32 29.851 32 27.2V4.8C32 2.14903 29.851 0 27.2 0Z" fill="#37AEE2"/>
<path d="M12.5244 23.162C11.9172 23.162 11.9724 22.9412 11.8068 22.3892L10.0404 16.5933L23.5643 8.64455" fill="#C8DAEA"/>
<path d="M12.5244 23.162C12.9108 23.162 13.1316 22.9412 13.4076 22.7204L15.8916 20.3469L12.8004 18.4701" fill="#A9C9DD"/>
<path d="M12.7991 18.4703L20.2511 23.9351C21.0239 24.4319 21.6862 24.1559 21.907 23.1623L24.943 8.92079C25.219 7.7064 24.4462 7.1544 23.6182 7.5408L5.89918 14.3855C4.73999 14.8271 4.73999 15.5447 5.67838 15.8207L10.2599 17.2559L20.7479 10.5768C21.2447 10.3008 21.6862 10.4112 21.3551 10.7976" fill="#F6FBFE"/>
</g>
<defs>
<clipPath id="clip0_1513_7006">
<rect width="32" height="32" fill="white"/>
</clipPath>
</defs>
</svg>
