<svg width="16" height="16" viewBox="0 0 16 16" fill="none" xmlns="http://www.w3.org/2000/svg">
<g clip-path="url(#clip0_998_4217)">
<path fill-rule="evenodd" clip-rule="evenodd" d="M8.404 14.484L10.964 8.725V1.5H3.489C3.30974 1.5001 3.13645 1.56441 3.00052 1.68126C2.86459 1.79812 2.77501 1.95979 2.748 2.137L1.754 8.687C1.73788 8.7937 1.74498 8.90262 1.77481 9.00633C1.80464 9.11003 1.8565 9.20608 1.92684 9.28791C1.99719 9.36974 2.08436 9.43543 2.18242 9.48049C2.28047 9.52555 2.38709 9.54891 2.495 9.549H6.262C6.952 9.549 7.512 10.109 7.512 10.799V13.425C7.512 13.955 7.897 14.397 8.404 14.485V14.484ZM12.464 1.5V8.134H13.75C13.9489 8.134 14.1397 8.05498 14.2803 7.91433C14.421 7.77368 14.5 7.58291 14.5 7.384V2.25C14.5 1.836 14.164 1.5 13.75 1.5H12.464ZM12.2 9.634L9.69 15.284C9.59523 15.4971 9.44069 15.6782 9.24509 15.8053C9.0495 15.9324 8.82125 16 8.588 16C8.24976 16.0001 7.91481 15.9336 7.60228 15.8043C7.28975 15.6749 7.00577 15.4853 6.76655 15.2462C6.52734 15.007 6.33757 14.7231 6.20811 14.4106C6.07864 14.0982 6.012 13.7632 6.012 13.425V11.049H2.495C2.17099 11.0489 1.85081 10.9789 1.55638 10.8437C1.26194 10.7084 1.00018 10.5112 0.789001 10.2655C0.577826 10.0197 0.422215 9.73126 0.332812 9.41983C0.24341 9.1084 0.222324 8.78133 0.270998 8.461L1.265 1.912C1.34583 1.38002 1.61463 0.894625 2.02266 0.54384C2.43069 0.193056 2.95091 0.00011158 3.489 0H13.75C14.3467 0 14.919 0.237053 15.341 0.65901C15.7629 1.08097 16 1.65326 16 2.25V7.384C16 7.98074 15.7629 8.55303 15.341 8.97499C14.919 9.39695 14.3467 9.634 13.75 9.634H12.2Z" fill="#062C41"/>
</g>
<defs>
<clipPath id="clip0_998_4217">
<rect width="16" height="16" fill="white" transform="matrix(-1 0 0 -1 16 16)"/>
</clipPath>
</defs>
</svg>
