<svg width="16" height="16" viewBox="0 0 16 16" fill="none" xmlns="http://www.w3.org/2000/svg">
<path d="M7.91044 0.64587C8.07511 0.256532 8.43224 0 8.8333 0C9.66143 0 10.3148 0.260797 10.6602 0.939964C10.8106 1.23556 10.8691 1.55292 10.8958 1.83068C10.9217 2.0999 10.9217 2.38629 10.9217 2.63888L10.9216 5.09091H13.0109C14.2359 5.09091 15.1605 6.28927 14.9767 7.60356L14.0613 14.149C13.9131 15.2093 13.0816 16 12.0955 16H5V6.54545L5.833 4.90909L7.91044 0.64587Z" fill="#0086C9"/>
<path d="M4 7H2.38658C1.06217 7 0 7.93538 0 9.07692V13.9231C0 15.0646 1.06217 16 2.38658 16H4V7Z" fill="#0086C9"/>
</svg>
