<svg width="32" height="32" viewBox="0 0 32 32" fill="none" xmlns="http://www.w3.org/2000/svg">
<g clip-path="url(#clip0_1513_7002)">
<path d="M28 0H4C1.79086 0 0 1.79086 0 4V28C0 30.2091 1.79086 32 4 32H28C30.2091 32 32 30.2091 32 28V4C32 1.79086 30.2091 0 28 0Z" fill="#7B519D"/>
<path fill-rule="evenodd" clip-rule="evenodd" d="M24.0387 20.3339C23.4477 19.8581 22.8161 19.4311 22.1945 18.9948C20.9546 18.124 19.8206 18.0563 18.8954 19.4573C18.3759 20.2439 17.6486 20.2783 16.8881 19.9332C14.7917 18.9826 13.1728 17.518 12.2245 15.3871C11.805 14.4444 11.8106 13.5992 12.792 12.9324C13.3116 12.5798 13.8352 12.1625 13.7933 11.392C13.7386 10.3873 11.2993 7.02987 10.336 6.67551C9.93741 6.52885 9.54046 6.53839 9.13493 6.67468C6.87617 7.43429 5.94059 9.29193 6.83658 11.4915C9.50959 18.0537 14.2136 22.6221 20.6891 25.4104C21.0582 25.5692 21.4684 25.6327 21.676 25.6896C23.1503 25.7045 24.8773 24.2841 25.3761 22.8745C25.8562 21.5184 24.8414 20.9801 24.0387 20.3339ZM16.7781 7.34829C21.5121 8.07626 23.6953 10.3273 24.2981 15.0953C24.354 15.5357 24.19 16.1984 24.8183 16.2106C25.475 16.2232 25.3168 15.5702 25.3223 15.1294C25.3778 10.6388 21.4623 6.47584 16.915 6.32235C16.5719 6.37172 15.862 6.08577 15.8177 6.85472C15.7882 7.37314 16.3859 7.28797 16.7781 7.34829Z" fill="white"/>
<path fill-rule="evenodd" clip-rule="evenodd" d="M17.7044 8.65559C17.249 8.60075 16.6479 8.38621 16.5415 9.018C16.4304 9.68114 17.1004 9.6138 17.5309 9.71017C20.4546 10.3636 21.4727 11.4278 21.9541 14.328C22.0244 14.7509 21.8847 15.409 22.6033 15.2999C23.1358 15.2188 22.9434 14.6547 22.988 14.3252C23.0116 11.5407 20.6256 9.00637 17.7044 8.65559Z" fill="white"/>
<path fill-rule="evenodd" clip-rule="evenodd" d="M17.9736 10.9325C17.6697 10.94 17.3714 10.9729 17.2596 11.2978C17.0919 11.7832 17.4448 11.899 17.8041 11.9567C19.0035 12.1492 19.6347 12.8565 19.7545 14.0525C19.7869 14.3771 19.9929 14.6402 20.3064 14.6031C20.741 14.5513 20.7803 14.1645 20.767 13.7972C20.7884 12.4535 19.2697 10.9004 17.9736 10.9325Z" fill="white"/>
</g>
<defs>
<clipPath id="clip0_1513_7002">
<rect width="32" height="32" fill="white"/>
</clipPath>
</defs>
</svg>
