<svg width="32" height="32" viewBox="0 0 32 32" fill="none" xmlns="http://www.w3.org/2000/svg">
<g clip-path="url(#clip0_1513_6998)">
<path d="M27.2 0H4.8C2.14903 0 0 2.14903 0 4.8V27.2C0 29.851 2.14903 32 4.8 32H27.2C29.851 32 32 29.851 32 27.2V4.8C32 2.14903 29.851 0 27.2 0Z" fill="#25D366"/>
<path d="M7.48592 25.0582L8.39896 20.8191C7.22544 18.9681 6.76764 16.7525 7.11147 14.5881C7.45529 12.4236 8.57711 10.4589 10.2664 9.0627C11.9558 7.66649 14.0965 6.93468 16.287 7.00458C18.4776 7.07448 20.5673 7.94128 22.1642 9.44235C23.7611 10.9434 24.7553 12.9756 24.9605 15.1576C25.1656 17.3396 24.5675 19.5215 23.2783 21.2939C21.9892 23.0663 20.0976 24.3074 17.9585 24.7843C15.8194 25.2612 13.5798 24.9412 11.6598 23.8843L7.48592 25.0582Z" fill="#25D366" stroke="white" stroke-width="1.69565"/>
<path d="M19.2481 17.063C19.0606 16.938 18.8731 16.8755 18.6856 17.1255L17.9356 18.1255C17.7481 18.2505 17.6231 18.313 17.3731 18.188C16.4356 17.688 15.1231 17.1255 13.9981 15.2505C13.9356 15.0005 14.0606 14.8755 14.1856 14.7505L14.7481 13.8755C14.8731 13.7505 14.8106 13.6255 14.7481 13.5005L13.9981 11.688C13.8106 11.188 13.6231 11.2505 13.4356 11.2505H12.9356C12.8106 11.2505 12.5606 11.313 12.3106 11.563C10.9356 12.938 11.4981 14.8755 12.4981 16.1255C12.6856 16.3755 13.9356 18.6255 16.6231 19.813C18.6231 20.688 19.0606 20.563 19.6231 20.438C20.3106 20.3755 20.9981 19.813 21.3106 19.2505C21.3731 19.063 21.6856 18.2505 21.4356 18.1255" fill="white"/>
</g>
<defs>
<clipPath id="clip0_1513_6998">
<rect width="32" height="32" fill="white"/>
</clipPath>
</defs>
</svg>
