<svg width="17" height="18" viewBox="0 0 17 18" fill="none" xmlns="http://www.w3.org/2000/svg">
<path d="M11.9792 11.0417H11.2221L10.9537 10.7829C11.8929 9.69042 12.4583 8.27208 12.4583 6.72917C12.4583 3.28875 9.66958 0.5 6.22917 0.5C2.78875 0.5 0 3.28875 0 6.72917C0 10.1696 2.78875 12.9583 6.22917 12.9583C7.77208 12.9583 9.19042 12.3929 10.2829 11.4537L10.5417 11.7221V12.4792L15.3333 17.2612L16.7612 15.8333L11.9792 11.0417ZM6.22917 11.0417C3.84292 11.0417 1.91667 9.11542 1.91667 6.72917C1.91667 4.34292 3.84292 2.41667 6.22917 2.41667C8.61542 2.41667 10.5417 4.34292 10.5417 6.72917C10.5417 9.11542 8.61542 11.0417 6.22917 11.0417Z" fill="white"/>
</svg>
